<mxfile host="65bd71144e">
    <diagram id="vSHlmyo73VDuBXHP0M1O" name="Page-1">
        <mxGraphModel dx="1131" dy="825" grid="1" gridSize="10" guides="1" tooltips="1" connect="1" arrows="1" fold="1" page="1" pageScale="1" pageWidth="850" pageHeight="1100" math="0" shadow="0">
            <root>
                <mxCell id="0"/>
                <mxCell id="1" parent="0"/>
                <mxCell id="2" value="Person" style="shape=umlActor;verticalLabelPosition=bottom;verticalAlign=top;html=1;outlineConnect=0;" vertex="1" parent="1">
                    <mxGeometry x="110" y="40" width="30" height="60" as="geometry"/>
                </mxCell>
                <mxCell id="3" value="Browser" style="rounded=0;whiteSpace=wrap;html=1;" vertex="1" parent="1">
                    <mxGeometry x="310" y="40" width="120" height="60" as="geometry"/>
                </mxCell>
                <mxCell id="4" value="Server&lt;br&gt;" style="rounded=0;whiteSpace=wrap;html=1;" vertex="1" parent="1">
                    <mxGeometry x="610" y="40" width="120" height="60" as="geometry"/>
                </mxCell>
                <mxCell id="5" value="" style="endArrow=none;dashed=1;html=1;" edge="1" parent="1">
                    <mxGeometry width="50" height="50" relative="1" as="geometry">
                        <mxPoint x="123" y="880" as="sourcePoint"/>
                        <mxPoint x="122.5" y="120" as="targetPoint"/>
                        <Array as="points">
                            <mxPoint x="122.5" y="170"/>
                        </Array>
                    </mxGeometry>
                </mxCell>
                <mxCell id="6" value="" style="endArrow=none;dashed=1;html=1;" edge="1" parent="1">
                    <mxGeometry width="50" height="50" relative="1" as="geometry">
                        <mxPoint x="360" y="880" as="sourcePoint"/>
                        <mxPoint x="360" y="120" as="targetPoint"/>
                        <Array as="points">
                            <mxPoint x="360" y="170"/>
                        </Array>
                    </mxGeometry>
                </mxCell>
                <mxCell id="7" value="" style="endArrow=none;dashed=1;html=1;" edge="1" parent="1">
                    <mxGeometry width="50" height="50" relative="1" as="geometry">
                        <mxPoint x="680" y="880" as="sourcePoint"/>
                        <mxPoint x="680" y="120" as="targetPoint"/>
                        <Array as="points">
                            <mxPoint x="680" y="170"/>
                        </Array>
                    </mxGeometry>
                </mxCell>
                <mxCell id="8" value="" style="endArrow=classic;html=1;" edge="1" parent="1">
                    <mxGeometry width="50" height="50" relative="1" as="geometry">
                        <mxPoint x="130" y="160" as="sourcePoint"/>
                        <mxPoint x="350" y="160" as="targetPoint"/>
                    </mxGeometry>
                </mxCell>
                <mxCell id="9" value="abre la url&amp;nbsp; &quot;&lt;a style=&quot;box-sizing: inherit; background-color: transparent; color: var(--color-text); text-decoration-line: none; border-width: 0px 0px 2px; border-color: rgb(178, 187, 240); border-image: initial; border-style: solid; padding: 2px; font-family: &amp;quot;IBM Plex Sans&amp;quot;, monospace; font-size: 9px; text-align: left;&quot; target=&quot;_blank&quot; href=&quot;https://studies.cs.helsinki.fi/exampleapp/notes&quot;&gt;https://studies.cs.helsinki.fi/exampleapp/notes&lt;/a&gt;&quot;" style="edgeLabel;html=1;align=center;verticalAlign=middle;resizable=0;points=[];fontSize=9;spacingRight=-18;spacingLeft=2;" vertex="1" connectable="0" parent="8">
                    <mxGeometry x="0.3364" y="-5" relative="1" as="geometry">
                        <mxPoint x="-87" y="-15" as="offset"/>
                    </mxGeometry>
                </mxCell>
                <mxCell id="10" value="" style="endArrow=classic;html=1;fontSize=9;" edge="1" parent="1">
                    <mxGeometry width="50" height="50" relative="1" as="geometry">
                        <mxPoint x="360" y="170" as="sourcePoint"/>
                        <mxPoint x="680" y="170" as="targetPoint"/>
                    </mxGeometry>
                </mxCell>
                <mxCell id="13" value="&lt;div style=&quot;display: flex; line-height: 20px; padding-left: 8px; gap: 12px; user-select: text; margin-top: 2px; color: rgb(228, 226, 227); font-family: system-ui, sans-serif; font-size: 9px; text-align: start; background-color: rgb(38, 38, 39);&quot; class=&quot;row&quot;&gt;&lt;div style=&quot;word-break: break-all; display: flex; align-items: center; gap: 2px; font-size: 9px;&quot; class=&quot;header-value&quot;&gt;https://studies.cs.helsinki.fi/exampleapp/notes&lt;/div&gt;&lt;div style=&quot;font-size: 9px;&quot;&gt;&lt;br style=&quot;font-size: 9px;&quot;&gt;&lt;/div&gt;&lt;/div&gt;&lt;div style=&quot;display: flex; line-height: 20px; padding-left: 8px; gap: 12px; user-select: text; color: rgb(228, 226, 227); font-family: system-ui, sans-serif; font-size: 9px; text-align: start; background-color: rgb(38, 38, 39);&quot; class=&quot;row&quot;&gt;&lt;/div&gt;" style="text;html=1;strokeColor=none;fillColor=none;align=center;verticalAlign=middle;whiteSpace=wrap;rounded=0;fontSize=9;" vertex="1" parent="1">
                    <mxGeometry x="450" y="173" width="230" height="30" as="geometry"/>
                </mxCell>
                <mxCell id="14" value="&lt;br style=&quot;&quot;&gt;&lt;span style=&quot;color: rgb(228, 226, 227); font-family: system-ui, sans-serif; text-align: start; text-transform: capitalize; background-color: rgb(38, 38, 39);&quot;&gt;Request Method&lt;/span&gt;&lt;span style=&quot;color: rgb(228, 226, 227); font-family: system-ui, sans-serif; text-align: start; text-transform: capitalize; background-color: rgb(38, 38, 39);&quot;&gt;:&amp;nbsp;&lt;/span&gt;&lt;span style=&quot;color: rgb(228, 226, 227); font-family: system-ui, sans-serif; text-align: start; background-color: rgb(38, 38, 39);&quot;&gt;GET&lt;/span&gt;" style="text;html=1;strokeColor=none;fillColor=none;align=center;verticalAlign=middle;whiteSpace=wrap;rounded=0;fontSize=9;" vertex="1" parent="1">
                    <mxGeometry x="338" y="170" width="150" height="30" as="geometry"/>
                </mxCell>
                <mxCell id="15" value="" style="endArrow=classic;html=1;fontSize=9;" edge="1" parent="1">
                    <mxGeometry width="50" height="50" relative="1" as="geometry">
                        <mxPoint x="680" y="240" as="sourcePoint"/>
                        <mxPoint x="360" y="240" as="targetPoint"/>
                    </mxGeometry>
                </mxCell>
                <mxCell id="17" value="Response :" style="text;html=1;strokeColor=none;fillColor=none;align=center;verticalAlign=middle;whiteSpace=wrap;rounded=0;fontSize=9;rotation=0;" vertex="1" parent="1">
                    <mxGeometry x="460" y="240" width="60" height="30" as="geometry"/>
                </mxCell>
                <mxCell id="18" value="HTML -&amp;nbsp; Code" style="text;html=1;strokeColor=none;fillColor=none;align=center;verticalAlign=middle;whiteSpace=wrap;rounded=0;fontSize=9;" vertex="1" parent="1">
                    <mxGeometry x="520" y="240" width="60" height="30" as="geometry"/>
                </mxCell>
                <mxCell id="19" value="&amp;lt;link rel=&quot;stylesheet&quot; type=&quot;text/css&quot; href=&quot;/exampleapp/main.css&quot; /&amp;gt;" style="shape=process;whiteSpace=wrap;html=1;backgroundOutline=1;fontSize=9;" vertex="1" parent="1">
                    <mxGeometry x="240" y="280" width="160" height="60" as="geometry"/>
                </mxCell>
                <mxCell id="22" value="" style="endArrow=classic;html=1;fontSize=9;" edge="1" parent="1">
                    <mxGeometry width="50" height="50" relative="1" as="geometry">
                        <mxPoint x="360" y="170" as="sourcePoint"/>
                        <mxPoint x="680" y="170" as="targetPoint"/>
                    </mxGeometry>
                </mxCell>
                <mxCell id="23" value="&lt;div style=&quot;display: flex; line-height: 20px; padding-left: 8px; gap: 12px; user-select: text; margin-top: 2px; color: rgb(228, 226, 227); font-family: system-ui, sans-serif; font-size: 9px; text-align: start; background-color: rgb(38, 38, 39);&quot; class=&quot;row&quot;&gt;&lt;div style=&quot;word-break: break-all; display: flex; align-items: center; gap: 2px; font-size: 9px;&quot; class=&quot;header-value&quot;&gt;https://studies.cs.helsinki.fi/exampleapp/notes&lt;/div&gt;&lt;div style=&quot;font-size: 9px;&quot;&gt;&lt;br style=&quot;font-size: 9px;&quot;&gt;&lt;/div&gt;&lt;/div&gt;&lt;div style=&quot;display: flex; line-height: 20px; padding-left: 8px; gap: 12px; user-select: text; color: rgb(228, 226, 227); font-family: system-ui, sans-serif; font-size: 9px; text-align: start; background-color: rgb(38, 38, 39);&quot; class=&quot;row&quot;&gt;&lt;/div&gt;" style="text;html=1;strokeColor=none;fillColor=none;align=center;verticalAlign=middle;whiteSpace=wrap;rounded=0;fontSize=9;" vertex="1" parent="1">
                    <mxGeometry x="450" y="173" width="230" height="30" as="geometry"/>
                </mxCell>
                <mxCell id="24" value="&lt;br style=&quot;&quot;&gt;&lt;span style=&quot;color: rgb(228, 226, 227); font-family: system-ui, sans-serif; text-align: start; text-transform: capitalize; background-color: rgb(38, 38, 39);&quot;&gt;Request Method&lt;/span&gt;&lt;span style=&quot;color: rgb(228, 226, 227); font-family: system-ui, sans-serif; text-align: start; text-transform: capitalize; background-color: rgb(38, 38, 39);&quot;&gt;:&amp;nbsp;&lt;/span&gt;&lt;span style=&quot;color: rgb(228, 226, 227); font-family: system-ui, sans-serif; text-align: start; background-color: rgb(38, 38, 39);&quot;&gt;GET&lt;/span&gt;" style="text;html=1;strokeColor=none;fillColor=none;align=center;verticalAlign=middle;whiteSpace=wrap;rounded=0;fontSize=9;" vertex="1" parent="1">
                    <mxGeometry x="379" y="310" width="150" height="30" as="geometry"/>
                </mxCell>
                <mxCell id="25" value="" style="endArrow=classic;html=1;fontSize=9;exitX=0.147;exitY=0.033;exitDx=0;exitDy=0;exitPerimeter=0;" edge="1" parent="1" source="24">
                    <mxGeometry width="50" height="50" relative="1" as="geometry">
                        <mxPoint x="410" y="310" as="sourcePoint"/>
                        <mxPoint x="680" y="310" as="targetPoint"/>
                    </mxGeometry>
                </mxCell>
                <mxCell id="26" value="&lt;div style=&quot;display: flex; line-height: 20px; padding-left: 8px; gap: 12px; user-select: text; margin-top: 2px; color: rgb(228, 226, 227); font-family: system-ui, sans-serif; font-size: 10px; text-align: start; background-color: rgb(38, 38, 39);&quot; class=&quot;row&quot;&gt;&lt;div style=&quot;font-size: 10px;&quot;&gt;&lt;span style=&quot;font-size: 10px;&quot;&gt;https://studies.cs.helsinki.fi/exampleapp/main.css&lt;/span&gt;&lt;br style=&quot;font-size: 10px;&quot;&gt;&lt;/div&gt;&lt;/div&gt;&lt;div style=&quot;display: flex; line-height: 20px; padding-left: 8px; gap: 12px; user-select: text; color: rgb(228, 226, 227); font-family: system-ui, sans-serif; font-size: 10px; text-align: start; background-color: rgb(38, 38, 39);&quot; class=&quot;row&quot;&gt;&lt;/div&gt;" style="text;html=1;strokeColor=none;fillColor=none;align=center;verticalAlign=middle;whiteSpace=wrap;rounded=0;fontSize=10;" vertex="1" parent="1">
                    <mxGeometry x="500" y="313" width="221" height="30" as="geometry"/>
                </mxCell>
                <mxCell id="27" value="" style="endArrow=classic;html=1;fontSize=9;" edge="1" parent="1">
                    <mxGeometry width="50" height="50" relative="1" as="geometry">
                        <mxPoint x="680" y="380" as="sourcePoint"/>
                        <mxPoint x="360" y="380" as="targetPoint"/>
                    </mxGeometry>
                </mxCell>
                <mxCell id="28" value="&amp;lt;link rel=&quot;stylesheet&quot; type=&quot;text/css&quot; href=&quot;/exampleapp/main.css&quot; /&amp;gt;" style="shape=process;whiteSpace=wrap;html=1;backgroundOutline=1;fontSize=9;" vertex="1" parent="1">
                    <mxGeometry x="240" y="410" width="160" height="60" as="geometry"/>
                </mxCell>
                <mxCell id="29" value="Response :" style="text;html=1;strokeColor=none;fillColor=none;align=center;verticalAlign=middle;whiteSpace=wrap;rounded=0;fontSize=9;rotation=0;" vertex="1" parent="1">
                    <mxGeometry x="460" y="380" width="60" height="30" as="geometry"/>
                </mxCell>
                <mxCell id="30" value="main.css-&amp;nbsp; Code" style="text;html=1;strokeColor=none;fillColor=none;align=center;verticalAlign=middle;whiteSpace=wrap;rounded=0;fontSize=9;" vertex="1" parent="1">
                    <mxGeometry x="520" y="380" width="80" height="30" as="geometry"/>
                </mxCell>
                <mxCell id="31" value="" style="endArrow=classic;html=1;fontSize=10;" edge="1" parent="1">
                    <mxGeometry width="50" height="50" relative="1" as="geometry">
                        <mxPoint x="360" y="379" as="sourcePoint"/>
                        <mxPoint x="360" y="409" as="targetPoint"/>
                    </mxGeometry>
                </mxCell>
                <mxCell id="33" value="" style="endArrow=classic;html=1;fontSize=10;" edge="1" parent="1">
                    <mxGeometry width="50" height="50" relative="1" as="geometry">
                        <mxPoint x="359.5" y="240" as="sourcePoint"/>
                        <mxPoint x="360" y="270" as="targetPoint"/>
                    </mxGeometry>
                </mxCell>
                <mxCell id="34" value="&lt;br style=&quot;&quot;&gt;&lt;span style=&quot;color: rgb(228, 226, 227); font-family: system-ui, sans-serif; text-align: start; text-transform: capitalize; background-color: rgb(38, 38, 39);&quot;&gt;Request Method&lt;/span&gt;&lt;span style=&quot;color: rgb(228, 226, 227); font-family: system-ui, sans-serif; text-align: start; text-transform: capitalize; background-color: rgb(38, 38, 39);&quot;&gt;:&amp;nbsp;&lt;/span&gt;&lt;span style=&quot;color: rgb(228, 226, 227); font-family: system-ui, sans-serif; text-align: start; background-color: rgb(38, 38, 39);&quot;&gt;GET&lt;/span&gt;" style="text;html=1;strokeColor=none;fillColor=none;align=center;verticalAlign=middle;whiteSpace=wrap;rounded=0;fontSize=9;" vertex="1" parent="1">
                    <mxGeometry x="379" y="437" width="150" height="30" as="geometry"/>
                </mxCell>
                <mxCell id="35" value="" style="endArrow=classic;html=1;fontSize=9;exitX=0.147;exitY=0.033;exitDx=0;exitDy=0;exitPerimeter=0;" edge="1" parent="1" source="34">
                    <mxGeometry width="50" height="50" relative="1" as="geometry">
                        <mxPoint x="410" y="437" as="sourcePoint"/>
                        <mxPoint x="680" y="437" as="targetPoint"/>
                    </mxGeometry>
                </mxCell>
                <mxCell id="36" value="&lt;div style=&quot;display: flex; line-height: 20px; padding-left: 8px; gap: 12px; user-select: text; margin-top: 2px; color: rgb(228, 226, 227); font-family: system-ui, sans-serif; font-size: 10px; text-align: start; background-color: rgb(38, 38, 39);&quot; class=&quot;row&quot;&gt;&lt;div style=&quot;font-size: 10px;&quot;&gt;&lt;div style=&quot;display: flex; line-height: 20px; padding-left: 8px; gap: 12px; user-select: text; margin-top: 2px; font-size: 9px;&quot; class=&quot;row&quot;&gt;&lt;div style=&quot;word-break: break-all; display: flex; align-items: center; gap: 2px;&quot; class=&quot;header-value&quot;&gt;https://studies.cs.helsinki.fi/exampleapp/main.js&lt;/div&gt;&lt;div&gt;&lt;br&gt;&lt;/div&gt;&lt;/div&gt;&lt;div style=&quot;display: flex; line-height: 20px; padding-left: 8px; gap: 12px; user-select: text; font-size: 12px;&quot; class=&quot;row&quot;&gt;&lt;/div&gt;&lt;/div&gt;&lt;/div&gt;&lt;div style=&quot;display: flex; line-height: 20px; padding-left: 8px; gap: 12px; user-select: text; color: rgb(228, 226, 227); font-family: system-ui, sans-serif; font-size: 10px; text-align: start; background-color: rgb(38, 38, 39);&quot; class=&quot;row&quot;&gt;&lt;/div&gt;" style="text;html=1;strokeColor=none;fillColor=none;align=center;verticalAlign=middle;whiteSpace=wrap;rounded=0;fontSize=10;" vertex="1" parent="1">
                    <mxGeometry x="491" y="440" width="230" height="30" as="geometry"/>
                </mxCell>
                <mxCell id="37" value="" style="endArrow=classic;html=1;fontSize=9;" edge="1" parent="1">
                    <mxGeometry width="50" height="50" relative="1" as="geometry">
                        <mxPoint x="681" y="500" as="sourcePoint"/>
                        <mxPoint x="361" y="500" as="targetPoint"/>
                    </mxGeometry>
                </mxCell>
                <mxCell id="38" value="Response :" style="text;html=1;strokeColor=none;fillColor=none;align=center;verticalAlign=middle;whiteSpace=wrap;rounded=0;fontSize=9;rotation=0;" vertex="1" parent="1">
                    <mxGeometry x="470" y="500" width="60" height="30" as="geometry"/>
                </mxCell>
                <mxCell id="39" value="main.js-&amp;nbsp; Code" style="text;html=1;strokeColor=none;fillColor=none;align=center;verticalAlign=middle;whiteSpace=wrap;rounded=0;fontSize=9;" vertex="1" parent="1">
                    <mxGeometry x="530" y="500" width="90" height="30" as="geometry"/>
                </mxCell>
                <mxCell id="40" value="&lt;div&gt;xhttp.open(&quot;GET&quot;, &quot;/exampleapp/data.json&quot;, true)&lt;/div&gt;&lt;div&gt;xhttp.send()&lt;/div&gt;" style="shape=process;whiteSpace=wrap;html=1;backgroundOutline=1;fontSize=9;" vertex="1" parent="1">
                    <mxGeometry x="240" y="531" width="160" height="60" as="geometry"/>
                </mxCell>
                <mxCell id="41" value="" style="endArrow=classic;html=1;fontSize=10;" edge="1" parent="1">
                    <mxGeometry width="50" height="50" relative="1" as="geometry">
                        <mxPoint x="360" y="500" as="sourcePoint"/>
                        <mxPoint x="360" y="530" as="targetPoint"/>
                    </mxGeometry>
                </mxCell>
                <mxCell id="42" value="&lt;br style=&quot;&quot;&gt;&lt;span style=&quot;color: rgb(228, 226, 227); font-family: system-ui, sans-serif; text-align: start; text-transform: capitalize; background-color: rgb(38, 38, 39);&quot;&gt;Request Method&lt;/span&gt;&lt;span style=&quot;color: rgb(228, 226, 227); font-family: system-ui, sans-serif; text-align: start; text-transform: capitalize; background-color: rgb(38, 38, 39);&quot;&gt;:&amp;nbsp;&lt;/span&gt;&lt;span style=&quot;color: rgb(228, 226, 227); font-family: system-ui, sans-serif; text-align: start; background-color: rgb(38, 38, 39);&quot;&gt;GET&lt;/span&gt;" style="text;html=1;strokeColor=none;fillColor=none;align=center;verticalAlign=middle;whiteSpace=wrap;rounded=0;fontSize=9;" vertex="1" parent="1">
                    <mxGeometry x="379" y="558" width="150" height="30" as="geometry"/>
                </mxCell>
                <mxCell id="43" value="" style="endArrow=classic;html=1;fontSize=9;exitX=0.147;exitY=0.033;exitDx=0;exitDy=0;exitPerimeter=0;" edge="1" parent="1" source="42">
                    <mxGeometry width="50" height="50" relative="1" as="geometry">
                        <mxPoint x="410" y="558" as="sourcePoint"/>
                        <mxPoint x="680" y="558" as="targetPoint"/>
                    </mxGeometry>
                </mxCell>
                <mxCell id="44" value="&lt;div style=&quot;display: flex; line-height: 20px; padding-left: 8px; gap: 12px; user-select: text; margin-top: 2px; color: rgb(228, 226, 227); font-family: system-ui, sans-serif; font-size: 10px; text-align: start; background-color: rgb(38, 38, 39);&quot; class=&quot;row&quot;&gt;&lt;div style=&quot;font-size: 10px;&quot;&gt;&lt;div style=&quot;display: flex; line-height: 20px; padding-left: 8px; gap: 12px; user-select: text; margin-top: 2px; font-size: 9px;&quot; class=&quot;row&quot;&gt;&lt;div&gt;&lt;div style=&quot;display: flex; line-height: 20px; padding-left: 8px; gap: 12px; user-select: text; margin-top: 2px; font-size: 8px;&quot; class=&quot;row&quot;&gt;&lt;div style=&quot;word-break: break-all; display: flex; align-items: center; gap: 2px;&quot; class=&quot;header-value&quot;&gt;https://studies.cs.helsinki.fi/exampleapp/data.json&lt;/div&gt;&lt;div&gt;&lt;br&gt;&lt;/div&gt;&lt;/div&gt;&lt;div style=&quot;display: flex; line-height: 20px; padding-left: 8px; gap: 12px; user-select: text; font-size: 12px;&quot; class=&quot;row&quot;&gt;&lt;/div&gt;&lt;/div&gt;&lt;/div&gt;&lt;div style=&quot;display: flex; line-height: 20px; padding-left: 8px; gap: 12px; user-select: text; font-size: 12px;&quot; class=&quot;row&quot;&gt;&lt;/div&gt;&lt;/div&gt;&lt;/div&gt;&lt;div style=&quot;display: flex; line-height: 20px; padding-left: 8px; gap: 12px; user-select: text; color: rgb(228, 226, 227); font-family: system-ui, sans-serif; font-size: 10px; text-align: start; background-color: rgb(38, 38, 39);&quot; class=&quot;row&quot;&gt;&lt;/div&gt;" style="text;html=1;strokeColor=none;fillColor=none;align=center;verticalAlign=middle;whiteSpace=wrap;rounded=0;fontSize=10;" vertex="1" parent="1">
                    <mxGeometry x="491" y="561" width="230" height="30" as="geometry"/>
                </mxCell>
                <mxCell id="45" value="" style="endArrow=classic;html=1;fontSize=9;" edge="1" parent="1">
                    <mxGeometry width="50" height="50" relative="1" as="geometry">
                        <mxPoint x="680" y="630" as="sourcePoint"/>
                        <mxPoint x="360" y="630" as="targetPoint"/>
                    </mxGeometry>
                </mxCell>
                <mxCell id="46" value="Response :" style="text;html=1;strokeColor=none;fillColor=none;align=center;verticalAlign=middle;whiteSpace=wrap;rounded=0;fontSize=9;rotation=0;" vertex="1" parent="1">
                    <mxGeometry x="469" y="630" width="60" height="30" as="geometry"/>
                </mxCell>
                <mxCell id="47" value="data.json" style="text;html=1;strokeColor=none;fillColor=none;align=center;verticalAlign=middle;whiteSpace=wrap;rounded=0;fontSize=9;" vertex="1" parent="1">
                    <mxGeometry x="529" y="630" width="90" height="30" as="geometry"/>
                </mxCell>
                <mxCell id="48" value="Show all notes in data.json" style="shape=process;whiteSpace=wrap;html=1;backgroundOutline=1;fontSize=8;" vertex="1" parent="1">
                    <mxGeometry x="250" y="640" width="140" height="60" as="geometry"/>
                </mxCell>
                <mxCell id="49" value="" style="endArrow=classic;html=1;fontSize=8;exitX=0;exitY=0.5;exitDx=0;exitDy=0;" edge="1" parent="1" source="48">
                    <mxGeometry width="50" height="50" relative="1" as="geometry">
                        <mxPoint x="240" y="670" as="sourcePoint"/>
                        <mxPoint x="130" y="670" as="targetPoint"/>
                    </mxGeometry>
                </mxCell>
                <mxCell id="50" value="" style="endArrow=classic;html=1;fontSize=8;" edge="1" parent="1">
                    <mxGeometry width="50" height="50" relative="1" as="geometry">
                        <mxPoint x="120" y="770" as="sourcePoint"/>
                        <mxPoint x="320" y="770" as="targetPoint"/>
                    </mxGeometry>
                </mxCell>
                <mxCell id="52" value="type a new note ---&amp;gt; click save" style="text;html=1;strokeColor=none;fillColor=none;align=center;verticalAlign=middle;whiteSpace=wrap;rounded=0;fontSize=8;" vertex="1" parent="1">
                    <mxGeometry x="190" y="770" width="60" height="30" as="geometry"/>
                </mxCell>
                <mxCell id="53" value="receive NEW_NOTE" style="shape=process;whiteSpace=wrap;html=1;backgroundOutline=1;fontSize=8;" vertex="1" parent="1">
                    <mxGeometry x="330" y="750" width="140" height="60" as="geometry"/>
                </mxCell>
                <mxCell id="55" value="" style="endArrow=classic;html=1;fontSize=8;" edge="1" parent="1">
                    <mxGeometry width="50" height="50" relative="1" as="geometry">
                        <mxPoint x="480" y="770" as="sourcePoint"/>
                        <mxPoint x="680" y="770" as="targetPoint"/>
                    </mxGeometry>
                </mxCell>
                <mxCell id="57" value="&lt;br style=&quot;&quot;&gt;&lt;span style=&quot;color: rgb(228, 226, 227); font-family: system-ui, sans-serif; text-align: start; text-transform: capitalize; background-color: rgb(38, 38, 39);&quot;&gt;Request Method&lt;/span&gt;&lt;span style=&quot;color: rgb(228, 226, 227); font-family: system-ui, sans-serif; text-align: start; text-transform: capitalize; background-color: rgb(38, 38, 39);&quot;&gt;:&amp;nbsp;&lt;/span&gt;&lt;span style=&quot;color: rgb(228, 226, 227); font-family: system-ui, sans-serif; text-align: start; background-color: rgb(38, 38, 39);&quot;&gt;POST&lt;/span&gt;" style="text;html=1;strokeColor=none;fillColor=none;align=center;verticalAlign=middle;whiteSpace=wrap;rounded=0;fontSize=9;" vertex="1" parent="1">
                    <mxGeometry x="470" y="770" width="110" height="30" as="geometry"/>
                </mxCell>
                <mxCell id="58" value="&lt;div style=&quot;display: flex; line-height: 20px; padding-left: 8px; gap: 12px; user-select: text; margin-top: 2px; color: rgb(228, 226, 227); font-family: system-ui, sans-serif; font-size: 10px; text-align: start; background-color: rgb(38, 38, 39);&quot; class=&quot;row&quot;&gt;&lt;div style=&quot;font-size: 10px;&quot;&gt;&lt;div style=&quot;display: flex; line-height: 20px; padding-left: 8px; gap: 12px; user-select: text; margin-top: 2px; font-size: 9px;&quot; class=&quot;row&quot;&gt;&lt;div&gt;&lt;div style=&quot;display: flex; line-height: 20px; padding-left: 8px; gap: 12px; user-select: text; margin-top: 2px;&quot; class=&quot;row&quot;&gt;&lt;div style=&quot;word-break: break-all; display: flex; align-items: center; gap: 2px;&quot; class=&quot;header-value&quot;&gt;https://studies.cs.helsinki.fi/exampleapp/new_note&lt;/div&gt;&lt;div&gt;&lt;br&gt;&lt;/div&gt;&lt;/div&gt;&lt;div style=&quot;display: flex; line-height: 20px; padding-left: 8px; gap: 12px; user-select: text; font-size: 12px;&quot; class=&quot;row&quot;&gt;&lt;/div&gt;&lt;/div&gt;&lt;/div&gt;&lt;div style=&quot;display: flex; line-height: 20px; padding-left: 8px; gap: 12px; user-select: text; font-size: 12px;&quot; class=&quot;row&quot;&gt;&lt;/div&gt;&lt;/div&gt;&lt;/div&gt;&lt;div style=&quot;display: flex; line-height: 20px; padding-left: 8px; gap: 12px; user-select: text; color: rgb(228, 226, 227); font-family: system-ui, sans-serif; font-size: 10px; text-align: start; background-color: rgb(38, 38, 39);&quot; class=&quot;row&quot;&gt;&lt;/div&gt;" style="text;html=1;strokeColor=none;fillColor=none;align=center;verticalAlign=middle;whiteSpace=wrap;rounded=0;fontSize=10;" vertex="1" parent="1">
                    <mxGeometry x="475" y="800" width="180" height="30" as="geometry"/>
                </mxCell>
                <mxCell id="59" value="" style="endArrow=classic;html=1;fontSize=9;" edge="1" parent="1">
                    <mxGeometry width="50" height="50" relative="1" as="geometry">
                        <mxPoint x="690" y="770" as="sourcePoint"/>
                        <mxPoint x="770" y="770" as="targetPoint"/>
                    </mxGeometry>
                </mxCell>
                <mxCell id="60" value="" style="endArrow=classic;html=1;fontSize=9;" edge="1" parent="1">
                    <mxGeometry width="50" height="50" relative="1" as="geometry">
                        <mxPoint x="760" y="770" as="sourcePoint"/>
                        <mxPoint x="760" y="240" as="targetPoint"/>
                    </mxGeometry>
                </mxCell>
                <mxCell id="61" value="" style="endArrow=classic;html=1;fontSize=9;" edge="1" parent="1">
                    <mxGeometry width="50" height="50" relative="1" as="geometry">
                        <mxPoint x="760" y="240" as="sourcePoint"/>
                        <mxPoint x="690" y="240" as="targetPoint"/>
                    </mxGeometry>
                </mxCell>
            </root>
        </mxGraphModel>
    </diagram>
</mxfile>